# xmcd
#
# Track frame offsets:
#	150
#	14440
#	25684
#	40061
#	54998
#	68715
#	80889
#	99664
#	108800
#	121998
#	135170
#	145519
#	159046
#	173003
#	185560
#	197039
#	210874
#	225171
#	237081
#	248953
#
# Disc length: 3511 seconds
#
# Revision: 0
# Processed by: cddbd v1.5.2PL0 Copyright (c) Steve Scherf et al.
# Submitted via: audiograbber 1.83.01
#
DISCID=ee0db514
DTITLE=Judy Garland - The Best Of Young Judy - Disk 1
DYEAR=1900
DGENRE=
TTITLE0=Swing Mr. Charlie
TTITLE1=Stompin' At The Savoy
TTITLE2=All God's Chillun Got Rhythm
TTITLE3=You Made Me Love You (Dear Mr.Gable)
TTITLE4=Zing! Went The Strings Of My Heart
TTITLE5=It Never Rains But What It Pours
TTITLE6=In-Between
TTITLE7=I'm Just Wild About Harry
TTITLE8=Over The Rainbow
TTITLE9=Embraceable You
TTITLE10=Swanee
TTITLE11=Fascinating Rhythm
TTITLE12=I'm Always Chasing Rainbows
TTITLE13=Easter Parade
TTITLE14=It's A Great Day For The Irish
TTITLE15=(Can This Be) The End Of The Rainbow
TTITLE16=Blues In The Night
TTITLE17=When You Wore A Tulip (And I Wore A Big Red Rose)
TTITLE18=For Me And My Gal
TTITLE19=But Not For Me
EXTD=
EXTT0=
EXTT1=
EXTT2=
EXTT3=
EXTT4=
EXTT5=
EXTT6=
EXTT7=
EXTT8=
EXTT9=
EXTT10=
EXTT11=
EXTT12=
EXTT13=
EXTT14=
EXTT15=
EXTT16=
EXTT17=
EXTT18=
EXTT19=
PLAYORDER=
